<svg width="18" height="21" viewBox="0 0 18 21" fill="none" xmlns="http://www.w3.org/2000/svg">
<path d="M17.2026 7.57173C17.1071 7.62744 14.8338 8.8031 14.8338 11.4098C14.941 14.3826 17.7026 15.4252 17.75 15.4252C17.7026 15.4809 17.3331 16.8454 16.2383 18.2757C15.3696 19.5078 14.4053 20.75 12.941 20.75C11.5481 20.75 11.0481 19.9288 9.44097 19.9288C7.71504 19.9288 7.22668 20.75 5.90525 20.75C4.44096 20.75 3.40524 19.4412 2.48909 18.2207C1.29887 16.6232 0.287222 14.1164 0.251508 11.7093C0.22744 10.4338 0.489862 9.18004 1.15601 8.11507C2.09623 6.62831 3.77481 5.61905 5.60789 5.58577C7.01239 5.54164 8.2624 6.48434 9.11954 6.48434C9.94097 6.48434 11.4767 5.58577 13.2143 5.58577C13.9643 5.58649 15.9643 5.79703 17.2026 7.57173ZM9.00075 5.3311C8.75075 4.16629 9.44097 3.00148 10.0838 2.25846C10.9053 1.3599 12.2026 0.75 13.3214 0.75C13.3928 1.91481 12.9402 3.05719 12.1312 3.8892C11.4053 4.78777 10.1553 5.46422 9.00075 5.3311Z" fill="#16192C"/>
</svg>
