<svg width="24" height="20" viewBox="0 0 24 20" fill="none" xmlns="http://www.w3.org/2000/svg">
<path fill-rule="evenodd" clip-rule="evenodd" d="M18.0124 12.5475C17.961 12.4738 17.9093 12.4016 17.8578 12.3298C17.4392 11.7463 17.0402 11.1902 17.0402 10.0754V5.91949C17.0402 5.77502 17.041 5.63151 17.0418 5.48913C17.051 3.8957 17.0593 2.44171 15.9101 1.32938C14.9246 0.346707 13.2876 0 12.0357 0C9.5872 0 6.85576 0.947013 6.28296 4.08512C6.22233 4.41845 6.4558 4.59294 6.66745 4.64198L9.16066 4.92178C9.39413 4.90949 9.56273 4.67151 9.60792 4.43183C9.82171 3.35047 10.695 2.83099 11.6762 2.83099C12.2054 2.83099 12.8063 3.03165 13.1196 3.52384C13.4425 4.01457 13.4374 4.66987 13.4328 5.25583C13.4323 5.32409 13.4317 5.39141 13.4317 5.45742V5.80578C13.2004 5.83259 12.958 5.858 12.7083 5.88418C11.3486 6.02673 9.77316 6.19191 8.59323 6.72827C6.98234 7.45175 5.85114 8.92385 5.85114 11.0876C5.85114 13.8606 7.53439 15.2469 9.70157 15.2469C11.5305 15.2469 12.5314 14.7993 13.9423 13.3077C14.0128 13.4136 14.0762 13.5113 14.1358 13.6033C14.4724 14.1222 14.6921 14.4609 15.4171 15.0864C15.6086 15.1923 15.8618 15.1883 16.0314 15.0289C16.5451 14.5552 17.4779 13.7146 18.0039 13.2576C18.214 13.0786 18.1767 12.7894 18.0124 12.5475ZM12.9505 11.3491C12.5421 12.1015 11.8916 12.5619 11.1689 12.5619C10.1834 12.5619 9.60474 11.7816 9.60474 10.6272C9.60474 8.35472 11.5714 7.94226 13.4312 7.94226C13.4312 8.07824 13.4325 8.21494 13.4337 8.352C13.4428 9.38073 13.4521 10.4299 12.9505 11.3491Z" fill="#16192C"/>
<path d="M21.0873 17.0823C18.6246 18.9867 15.0531 20 11.9773 20C7.66812 20 3.78657 18.3307 0.849479 15.5515C0.619095 15.333 0.824726 15.0346 1.10151 15.2042C4.27083 17.1371 8.18945 18.3006 12.2367 18.3006C14.9672 18.3006 17.9682 17.7073 20.7295 16.479C21.146 16.2944 21.4951 16.7674 21.0873 17.0823Z" fill="#16192C"/>
<path d="M19.2363 15.7559C20.0293 15.6555 21.7974 15.4334 22.1122 15.8556C22.4273 16.2775 21.7654 18.0124 21.4671 18.7943L21.4649 18.8C21.3751 19.0358 21.5681 19.1299 21.7715 18.9512C23.0931 17.7933 23.4346 15.366 23.1638 15.0143C22.8951 14.6674 20.5847 14.367 19.1747 15.4049C18.958 15.5659 18.9951 15.7852 19.2363 15.7559Z" fill="#16192C"/>
</svg>
