<svg width="37" height="36" viewBox="0 0 37 36" fill="none" xmlns="http://www.w3.org/2000/svg">
<path d="M16.508 7.91719C16.0369 8.02969 15.5025 8.47969 11.0377 12.5086C7.52909 15.6797 6.20019 16.9242 6.06659 17.1562C5.82753 17.5922 5.8205 18.3797 6.05253 18.8227C6.24237 19.1883 15.3267 27.6539 15.7838 27.893C16.6627 28.357 17.7525 28.0195 18.1955 27.1336C18.5189 26.4938 18.3994 25.5867 17.9283 25.0945C17.8299 24.9891 16.508 23.7586 14.9892 22.3523L12.233 19.793L21.1978 19.7578C29.8111 19.7227 30.1627 19.7156 30.3596 19.5891C31.0205 19.1742 31.2736 18.7383 31.2736 18C31.2736 17.2617 31.0205 16.8258 30.3596 16.4109C30.1627 16.2844 29.8111 16.2773 21.24 16.2422L12.3244 16.207L15.2846 13.5422C17.176 11.8266 18.301 10.7648 18.4135 10.575C18.9127 9.72422 18.5541 8.53594 17.6682 8.08594C17.3939 7.94531 16.7682 7.85391 16.508 7.91719Z" fill="black"/>
</svg>
