<svg width="20" height="20" viewBox="0 0 20 20" fill="none" xmlns="http://www.w3.org/2000/svg">
<path d="M10.833 9.29169H5.83301" stroke="white" stroke-width="1.5" stroke-linecap="round" stroke-linejoin="round"/>
<path d="M1.66699 9.2917V5.4417C1.66699 3.7417 3.04199 2.3667 4.74199 2.3667H9.42532C11.1253 2.3667 12.5003 3.42503 12.5003 5.12503" stroke="white" stroke-width="1.5" stroke-linecap="round" stroke-linejoin="round"/>
<path d="M14.567 10.1667C14.1503 10.5667 13.9503 11.1833 14.117 11.8167C14.3253 12.5917 15.092 13.0834 15.892 13.0834H16.667V14.2917C16.667 16.1334 15.1753 17.625 13.3337 17.625H5.00033C3.15866 17.625 1.66699 16.1334 1.66699 14.2917V8.45836C1.66699 6.6167 3.15866 5.12503 5.00033 5.12503H13.3337C15.167 5.12503 16.667 6.62503 16.667 8.45836V9.66666H15.767C15.3003 9.66666 14.8753 9.85002 14.567 10.1667Z" stroke="white" stroke-width="1.5" stroke-linecap="round" stroke-linejoin="round"/>
<path d="M18.3338 10.5167V12.2333C18.3338 12.7 17.9505 13.0834 17.4755 13.0834H15.8672C14.9672 13.0834 14.1422 12.425 14.0672 11.525C14.0172 11 14.2172 10.5084 14.5672 10.1667C14.8755 9.85002 15.3005 9.66666 15.7672 9.66666H17.4755C17.9505 9.66666 18.3338 10.05 18.3338 10.5167Z" stroke="white" stroke-width="1.5" stroke-linecap="round" stroke-linejoin="round"/>
</svg>
