<svg width="24" height="24" viewBox="0 0 24 24" fill="none" xmlns="http://www.w3.org/2000/svg">
<path d="M13.9195 1.56201L13.9099 6.18241L13.9003 10.8028L13.4593 9.73022V9.72747L12.8872 20.0134C13.4497 21.3775 13.7501 22.1063 13.7533 22.1091C13.7565 22.1118 14.0761 22.1283 14.4628 22.1448C15.6325 22.1943 17.0835 22.3016 18.1861 22.4198C18.4418 22.4473 18.6591 22.4611 18.6751 22.4501C18.6911 22.4391 18.6943 17.7362 18.6911 11.9964L18.6815 1.56201H13.9195Z" fill="#D55353"/>
<path d="M5.30542 1.54816V11.9936C5.30542 17.7389 5.31181 22.4445 5.3214 22.4528C5.33099 22.461 5.74327 22.4253 6.24184 22.3785C6.74041 22.3318 7.42754 22.2713 7.76951 22.2465C8.29365 22.208 9.86607 22.1228 10.045 22.12C10.0994 22.12 10.1026 21.8862 10.109 17.6949L10.1185 13.2697L10.4989 14.1938C10.5564 14.3368 10.5756 14.3808 10.6331 14.5211L11.2052 4.2379C11.0837 3.94362 11.1477 4.09764 11.0102 3.76211C10.5436 2.62626 10.1473 1.66642 10.1313 1.62242L10.0994 1.54541H5.30542V1.54816Z" fill="#D55353"/>
<path d="M5.30542 1.54816L10.1154 13.2779V13.2724L10.4957 14.1965C12.6082 19.3421 13.7428 22.1034 13.7492 22.1089C13.7524 22.1116 14.072 22.1281 14.4587 22.1446C15.6285 22.1941 17.0794 22.3014 18.1821 22.4197C18.4345 22.4472 18.6551 22.4609 18.6678 22.4499L13.8994 10.7999V10.8027L13.4584 9.73009C13.0269 8.68226 12.7393 7.98095 11.0039 3.7621C10.5373 2.62625 10.1409 1.66642 10.125 1.62242L10.093 1.54541H7.69921L5.30542 1.54816Z" fill="#FE5050"/>
</svg>
