<svg width="19" height="18" viewBox="0 0 19 18" fill="none" xmlns="http://www.w3.org/2000/svg">
<g clip-path="url(#clip0_55_557)">
<path d="M17.4166 16.4841L15.8333 15.0674M9.10408 15.7757C10.0917 15.7757 11.0697 15.6017 11.9822 15.2635C12.8947 14.9253 13.7237 14.4297 14.4221 13.8048C15.1205 13.18 15.6745 12.4381 16.0524 11.6217C16.4304 10.8053 16.6249 9.93026 16.6249 9.04657C16.6249 8.16289 16.4304 7.28785 16.0524 6.47143C15.6745 5.65501 15.1205 4.91319 14.4221 4.28833C13.7237 3.66347 12.8947 3.16781 11.9822 2.82963C11.0697 2.49146 10.0917 2.31741 9.10408 2.31741C7.10944 2.31741 5.19648 3.02637 3.78605 4.28833C2.37562 5.5503 1.58325 7.26189 1.58325 9.04657C1.58325 10.8313 2.37562 12.5428 3.78605 13.8048C5.19648 15.0668 7.10944 15.7757 9.10408 15.7757V15.7757Z" stroke="black" stroke-opacity="0.57" stroke-width="1.5" stroke-linecap="round" stroke-linejoin="round"/>
</g>
<defs>
<clipPath id="clip0_55_557">
<rect width="19" height="17" fill="white" transform="translate(0 0.900742)"/>
</clipPath>
</defs>
</svg>
