<svg width="25" height="24" viewBox="0 0 25 24" fill="none" xmlns="http://www.w3.org/2000/svg">
<path d="M13.9982 5.5L21.552 5.50052L21.6522 5.51444L21.7511 5.54205L21.8113 5.5676C21.8906 5.60246 21.9648 5.65315 22.03 5.71836L22.0707 5.7624L22.1143 5.81878L22.1684 5.9089L22.2071 5.99922L22.2263 6.0633L22.2399 6.1273L22.2492 6.2215L22.2497 13.7539C22.2497 14.1681 21.9139 14.5039 21.4997 14.5039C21.12 14.5039 20.8062 14.2217 20.7566 13.8557L20.7497 13.7539L20.7493 8.059L13.0304 15.7793C12.7642 16.0455 12.3475 16.0698 12.0539 15.8519L11.9698 15.7793L8.99928 12.8089L3.5296 18.2786C3.2367 18.5715 2.76183 18.5715 2.46894 18.2786C2.20267 18.0123 2.17846 17.5957 2.39632 17.3021L2.46894 17.2179L8.46894 11.2179C8.7352 10.9517 9.15186 10.9275 9.44547 11.1453L9.52959 11.2179L12.5001 14.1883L19.6873 7H13.9982C13.6185 7 13.3047 6.71785 13.255 6.35177L13.2482 6.25C13.2482 5.8703 13.5303 5.55651 13.8964 5.50685L13.9982 5.5Z" fill="#718096"/>
</svg>
