<svg width="25" height="24" viewBox="0 0 25 24" fill="none" xmlns="http://www.w3.org/2000/svg">
<g clip-path="url(#clip0_43_265)">
<path d="M10.75 3.19998C9.18567 3.56262 7.74688 4.33718 6.58284 5.44332C5.4188 6.54946 4.5719 7.94689 4.12999 9.49066C3.68808 11.0344 3.66725 12.6683 4.06965 14.2229C4.47206 15.7774 5.28305 17.196 6.41851 18.3314C7.55397 19.4669 8.97254 20.2779 10.5271 20.6803C12.0816 21.0827 13.7155 21.0619 15.2593 20.62C16.8031 20.178 18.2005 19.3311 19.3066 18.1671C20.4128 17.0031 21.1873 15.5643 21.55 14C21.55 13.7348 21.4446 13.4804 21.2571 13.2929C21.0695 13.1053 20.8152 13 20.55 13H13.75C13.2195 13 12.7108 12.7893 12.3357 12.4142C11.9607 12.0391 11.75 11.5304 11.75 11V3.99998C11.7375 3.88151 11.7017 3.76668 11.6446 3.66215C11.5874 3.55763 11.5101 3.46548 11.4171 3.39107C11.3241 3.31665 11.2172 3.26144 11.1027 3.22864C10.9882 3.19584 10.8683 3.1861 10.75 3.19998Z" stroke="#718096" stroke-width="1.5" stroke-linecap="round" stroke-linejoin="round"/>
<path d="M15.75 3.49994C17.0197 3.94702 18.173 4.67324 19.1248 5.6251C20.0767 6.57696 20.8029 7.73022 21.25 8.99994H16.75C16.4848 8.99994 16.2304 8.89458 16.0429 8.70705C15.8554 8.51951 15.75 8.26516 15.75 7.99994V3.49994Z" stroke="#718096" stroke-width="1.5" stroke-linecap="round" stroke-linejoin="round"/>
</g>
<defs>
<clipPath id="clip0_43_265">
<rect width="24" height="24" fill="white" transform="translate(0.75)"/>
</clipPath>
</defs>
</svg>
