<svg width="20" height="20" viewBox="0 0 20 20" fill="none" xmlns="http://www.w3.org/2000/svg">
<path d="M4.56666 15.4083V12.975C4.56666 12.1667 5.19999 11.4416 6.09999 11.4416C6.90832 11.4416 7.63332 12.075 7.63332 12.975V15.3167C7.63332 16.9417 6.28331 18.2917 4.65831 18.2917C3.03331 18.2917 1.68331 16.9333 1.68331 15.3167V10.1833C1.59164 5.49997 5.29165 1.70831 9.97499 1.70831C14.6583 1.70831 18.35 5.49998 18.35 10.0916V15.225C18.35 16.85 17 18.2 15.375 18.2C13.75 18.2 12.4 16.85 12.4 15.225V12.8833C12.4 12.075 13.0333 11.35 13.9333 11.35C14.7417 11.35 15.4666 11.9833 15.4666 12.8833V15.4083" stroke="white" stroke-width="1.5" stroke-linecap="round" stroke-linejoin="round"/>
<path d="M12.9415 7.59999H12.2665C12.0831 7.59999 11.9081 7.70833 11.8248 7.86667L11.1998 9.11667C11.1081 9.3 10.8498 9.3 10.7581 9.11667L9.22482 6.05835C9.13315 5.88335 8.88313 5.87501 8.79147 6.05001L8.09147 7.34166C8.00814 7.5 7.84148 7.59999 7.65815 7.59999H7.0498" stroke="white" stroke-width="1.5" stroke-linecap="round" stroke-linejoin="round"/>
</svg>
